<svg width="49" height="48" viewBox="0 0 49 48" fill="none" xmlns="http://www.w3.org/2000/svg">
<path d="M24.4999 0C18.6824 0.000242294 13.0547 2.07957 8.62392 5.86594C4.19313 9.6523 1.24834 14.8986 0.316441 20.6662C-0.615454 26.4337 0.526367 32.3461 3.5376 37.3455C6.54882 42.3448 11.233 46.1049 16.7519 47.9529C17.9769 48.1683 18.4362 47.4301 18.4362 46.7841C18.4362 46.1997 18.4056 44.2618 18.4056 42.201C12.25 43.3391 10.6575 40.6939 10.1675 39.3098C9.62379 37.9636 8.76188 36.7706 7.65626 35.834C6.79877 35.3726 5.57378 34.2345 7.62561 34.2038C8.40909 34.2892 9.16052 34.563 9.81624 35.002C10.472 35.4411 11.0127 36.0324 11.3925 36.7259C11.7276 37.3305 12.1781 37.8628 12.7184 38.2922C13.2586 38.7216 13.8779 39.0397 14.5408 39.2283C15.2037 39.4168 15.8971 39.4722 16.5813 39.3912C17.2655 39.3101 17.927 39.0943 18.528 38.756C18.6341 37.5051 19.1892 36.3354 20.0899 35.4649C14.6387 34.8498 8.9425 32.7273 8.9425 23.3152C8.90808 20.8696 9.80658 18.5035 11.4537 16.7021C10.7047 14.5766 10.7924 12.244 11.6987 10.1812C11.6987 10.1812 13.7505 9.53527 18.4362 12.7034C22.4451 11.5961 26.6772 11.5961 30.6861 12.7034C35.3716 9.50453 37.4236 10.1812 37.4236 10.1812C38.33 12.244 38.4177 14.5766 37.6686 16.7021C39.3207 18.5004 40.22 20.8686 40.1798 23.3152C40.1798 32.7581 34.4529 34.8498 29.0017 35.4649C29.5864 36.0601 30.0367 36.7748 30.3221 37.5602C30.6074 38.3457 30.7211 39.1837 30.6555 40.0172C30.6555 43.3085 30.6248 45.9536 30.6248 46.7842C30.6248 47.4301 31.0842 48.1991 32.3092 47.953C37.8184 46.0899 42.4891 42.321 45.4875 37.3191C48.4859 32.3172 49.6168 26.4078 48.6785 20.6459C47.7401 14.8839 44.7935 9.6444 40.3647 5.86265C35.9358 2.08089 30.313 0.00303874 24.4999 0Z" fill="white"/>
</svg>
