<svg width="47" height="47" viewBox="0 0 47 47" fill="none" xmlns="http://www.w3.org/2000/svg">
<path d="M43.5246 0.000328598H3.47535C3.02516 -0.00588618 2.57815 0.0761092 2.15984 0.241632C1.74153 0.407155 1.36012 0.652963 1.0374 0.965018C0.714674 1.27707 0.456953 1.64926 0.278955 2.06033C0.100956 2.4714 0.00616673 2.9133 0 3.36078V43.6392C0.00616673 44.0867 0.100956 44.5286 0.278955 44.9397C0.456953 45.3507 0.714674 45.7229 1.0374 46.035C1.36012 46.347 1.74153 46.5928 2.15984 46.7584C2.57815 46.9239 3.02516 47.0059 3.47535 46.9997H43.5246C43.9748 47.0059 44.4219 46.9239 44.8402 46.7584C45.2585 46.5928 45.6399 46.347 45.9626 46.035C46.2853 45.7229 46.543 45.3507 46.721 44.9397C46.899 44.5286 46.9938 44.0867 47 43.6392V3.36078C46.9938 2.9133 46.899 2.4714 46.721 2.06033C46.543 1.64926 46.2853 1.27707 45.9626 0.965018C45.6399 0.652963 45.2585 0.407155 44.8402 0.241632C44.4219 0.0761092 43.9748 -0.00588618 43.5246 0.000328598ZM14.256 39.3388H7.16348V18.1891H14.256V39.3388ZM10.7098 15.2281C9.73161 15.2281 8.79352 14.8419 8.10186 14.1544C7.4102 13.4669 7.02163 12.5344 7.02163 11.5622C7.02163 10.5899 7.4102 9.65745 8.10186 8.96995C8.79352 8.28245 9.73161 7.89622 10.7098 7.89622C11.2292 7.83767 11.7551 7.88882 12.2533 8.04634C12.7514 8.20386 13.2104 8.46418 13.6003 8.81027C13.9902 9.15635 14.3022 9.58039 14.5158 10.0546C14.7294 10.5289 14.8398 11.0426 14.8398 11.5622C14.8398 12.0818 14.7294 12.5955 14.5158 13.0697C14.3022 13.5439 13.9902 13.968 13.6003 14.3141C13.2104 14.6602 12.7514 14.9205 12.2533 15.078C11.7551 15.2355 11.2292 15.2867 10.7098 15.2281ZM39.8365 39.3388H32.744V27.9884C32.744 25.145 31.7274 23.2885 29.1504 23.2885C28.3529 23.2943 27.5763 23.543 26.9253 24.0009C26.2743 24.4589 25.7802 25.1043 25.5096 25.85C25.3245 26.4023 25.2444 26.984 25.2731 27.5654V39.3153H18.1806C18.1806 39.3153 18.1806 20.0925 18.1806 18.1656H25.2731V21.15C25.9175 20.0387 26.8546 19.1232 27.9835 18.5021C29.1125 17.881 30.3906 17.5777 31.6801 17.6251C36.4085 17.6251 39.8365 20.6565 39.8365 27.1659V39.3388Z" fill="white"/>
</svg>
