<svg width="63" height="63" viewBox="0 0 63 63" fill="none" xmlns="http://www.w3.org/2000/svg">
<g clip-path="url(#clip0_421_845)">
<path d="M52.5 10.5H10.5C7.6125 10.5 5.27625 12.8625 5.27625 15.75L5.25 47.25C5.25 50.1375 7.6125 52.5 10.5 52.5H52.5C55.3875 52.5 57.75 50.1375 57.75 47.25V15.75C57.75 12.8625 55.3875 10.5 52.5 10.5ZM51.45 21.6562L32.8912 33.2588C32.0512 33.7838 30.9488 33.7838 30.1088 33.2588L11.55 21.6562C10.8938 21.2363 10.5 20.5275 10.5 19.7663C10.5 18.0075 12.4163 16.9575 13.9125 17.8762L31.5 28.875L49.0875 17.8762C50.5838 16.9575 52.5 18.0075 52.5 19.7663C52.5 20.5275 52.1063 21.2363 51.45 21.6562Z" fill="white"/>
</g>
<defs>
<clipPath id="clip0_421_845">
<rect width="63" height="63" fill="white"/>
</clipPath>
</defs>
</svg>
